<svg version="1.1" id="Layer_1" xmlns="http://www.w3.org/2000/svg" xmlns:xlink="http://www.w3.org/1999/xlink" x="0px" y="0px"
	 width="1331px" height="1007px" viewBox="0 0 1331 1007" enable-background="new 0 0 1331 1007" xml:space="preserve">

<g id="logo">
	<g id="obruc_x5F_a_x5F_text">
		<g id="_x32_018">
			<g>
				<path fill="#FFFFFF" d="M84.609,432.352v-12.561l-9.006-9.006H46.689l-9.244,9.006v11.376H0v-26.78l31.047-31.285h59.961
					l31.047,31.285v46.688l-84.609,62.806v9.479h84.609v37.446H0V494.92L84.609,432.352z"/>
			</g>
			<g>
				<path fill="#FFFFFF" d="M268.045,404.148V529.76l-31.047,31.047h-60.199l-31.047-31.047V404.148l31.047-31.047h60.199
					L268.045,404.148z M183.436,419.791v94.326l9.006,9.243h28.914l9.006-9.243v-94.326l-9.006-9.006h-28.914L183.436,419.791z"/>
			</g>
			<g>
				<path fill="#FFFFFF" d="M1183.101,560.807h-37.446V428.561h-15.404V406.52l1.422-0.475c8.372-2.211,14.812-6.199,19.314-11.969
					c4.504-5.766,7.307-12.123,8.414-19.078l0.236-1.896h23.464V560.807z"/>
			</g>
			<path fill="#FFFFFF" d="M1206.992,530.008v-51.67l11.76-11.666l-11.76-11.43v-51.432l31.44-31.191h60.96l31.439,31.191v51.432
				l-11.76,11.43l11.76,11.666v51.67l-31.439,31.191h-60.96L1206.992,530.008z M1284.272,447.86l8.399-8.333v-20.001l-8.88-9.048
				h-29.52l-9.12,9.048v20.001l8.399,8.333H1284.272z M1254.272,523.34h29.52l8.88-9.047v-20.24l-8.399-8.571h-30.721l-8.399,8.571
				v20.24L1254.272,523.34z"/>
		</g>
		<path id="litovel" fill="#FFFFFF" d="M543.852,983.705l-39.36-13.404l28.085-82.47l15.619,5.319l-22.766,66.851l23.74,8.085
			L543.852,983.705z M579.905,903.121l15.983,4.094l-21.616,84.396l-15.984-4.095L579.905,903.121z M647.232,933.378l-15.09-2.464
			l-11.379,69.697l-16.284-2.658l11.378-69.697l-15.199-2.482l2.659-16.284l46.573,7.604L647.232,933.378z M691.769,1006
			l-24.521-0.667l-13.265-14.006l1.629-59.818l14.005-13.264l24.521,0.667l13.374,14.009l-1.628,59.818L691.769,1006z
			 M689.598,984.703l1.217-44.754l-4.602-4.746l-9.457-0.258l-4.967,4.598l-1.215,44.643l4.709,4.859l9.457,0.258L689.598,984.703z
			 M766.625,912.689l-8.463,88.772l-15.29,1.843l-29.321-84.215l16.708-2.016l15.202,43.372l4.346-45.729L766.625,912.689z
			 M845.188,982.002l-50.112,13.578l-22.784-84.09l50.113-13.577l4.314,15.927l-34.188,9.263l4.92,18.155l15.926-4.316l4.315,15.927
			l-15.927,4.315l4.92,18.154l34.188-9.263L845.188,982.002z M899.866,960.475l-38.511,15.68l-32.85-80.689l15.281-6.222
			l26.629,65.407l23.229-9.457L899.866,960.475z"/>
		<path id="obruc" fill="#FFFFFF" d="M1097.846,271.951c-21.946-51.889-53.362-98.485-93.374-138.497S917.863,62.027,865.976,40.08
			C812.247,17.355,755.182,5.832,696.365,5.832S580.484,17.355,526.756,40.08c-30.101,12.731-58.406,28.67-84.693,47.604
			c2.181-1.22,4.396-2.424,6.668-3.596c30.066-15.507,65.93-26.193,105.072-34.838c48.783-10.774,103.648-16.779,163.072-17.848
			c1.688-0.135,10.517-0.38,24.35,6.87c38.952,4.265,76.828,14.112,113.064,29.438c48.312,20.435,91.703,49.69,128.97,86.958
			c37.267,37.266,66.522,80.658,86.957,128.97c21.152,50.011,31.878,103.144,31.878,157.923c0,54.78-10.726,107.913-31.878,157.924
			c-20.435,48.312-49.69,91.704-86.957,128.971c-37.267,37.266-80.658,66.522-128.97,86.957
			c-50.011,21.152-103.145,31.878-157.924,31.878s-107.913-10.726-157.924-31.878c-48.312-20.435-91.703-49.691-128.97-86.957
			c-37.266-37.267-66.523-80.658-86.957-128.971c-21.153-50.011-31.878-103.144-31.878-157.924
			c0-54.779,10.725-107.912,31.878-157.923c6.359-15.034,13.575-29.592,21.618-43.637c-0.503,0.273-1.021,0.539-1.518,0.815
			c-25.097,13.938-45.588,30.912-56.081,52.424c-17.191,47.425-25.897,97.211-25.897,148.32c0,58.816,11.522,115.882,34.248,169.61
			c21.947,51.889,53.362,98.485,93.374,138.497c40.012,40.012,86.609,71.428,138.498,93.374
			c53.729,22.726,110.793,34.248,169.609,34.248s115.882-11.522,169.61-34.248c51.888-21.946,98.484-53.362,138.496-93.374
			s71.428-86.608,93.374-138.497c22.726-53.729,34.248-110.794,34.248-169.61S1120.571,325.68,1097.846,271.951z"/>
	</g>
	<g id="mic">
		<path fill="#FFFFFF" d="M1003.229,574.329c-4.649-3.935-21.883-18.238-40.739-30.521v65.375l-45.654,51.425l-41.897,5.774v78.925
			l-88.789,12.238v-24.408l-24.892,27.838l-80.221,11.056l-37.661-31.742l-37.966,42.166l-39.465,5.439l0,0l10.777-1.485
			c13.358,9.339,29.671,15.109,48.709,17.17c18.842,2.039,39.882,3.073,62.538,3.073c35.081,0,62.678-2.521,65.453-2.783
			c19.477-3.801,51.599-10.81,59.05-14.238l17.54-22.955c-0.197-0.09-0.414-0.189-0.619-0.284
			c-8.471-3.598-16.154-7.562-23.084-11.624l17.236-2.376c7.276,3.707,12.914,6.204,15.154,7.169
			c7.989-0.984,66.099-10.242,118.6-71.778l0.175-0.194C958.052,686.978,1014.57,626.555,1003.229,574.329z"/>
		<path fill="#FFFFFF" d="M1007.939,565.059c39.446-32.613,47.106-93.232,47.181-93.857c3.957-39.583-7.608-73.574-18.01-95.103
			c-11.577-23.964-24.038-37.605-28.737-40.712c-5.941,4.657-21.363,13.646-36.935,22.34c-7.967,4.604-19.317,11.071-28.036,15.511
			v109.33l-3.243,21.632l22.33,18.848v8.71C983.494,544.23,1000.975,558.921,1007.939,565.059z"/>
		<path fill="#FFFFFF" d="M477.222,534.157V354.494c-8.383,7.024-16.156,14.723-22.676,23.064
			c-3.106,12.468-19.908,86.07,2.104,137.377C458.918,517.485,465.822,524.893,477.222,534.157z"/>
		<path fill="#FFFFFF" d="M463.183,715.079c3.542,2.774,7.438,5.665,11.638,8.556V585.637l22.992-25.883l-2.729,3.071
			c-19.765-11.566-38.621-25.304-49.142-39.946l-61.863,40.41c-0.853,3.693-2.57,14.104,0.179,30.134
			c3.233,18.85,13.462,49.493,43.834,88.467C428.928,682.887,442.369,698.773,463.183,715.079z"/>
		<path fill="#FFFFFF" d="M380.138,553.919l51.152-33.413l9.845-6.431c-5.035-13.12-17.719-57.227-1.334-138.703
			c-5.597-3.782-18.564-12.719-31.685-22.983c-10.796-8.248-21.057-16.706-26.443-22.79c-4.045,3.285-10.998,9.85-18.216,20.849
			c-18.802,28.653-24.902,64.797-26.708,90.071l-0.09,1.26C336.658,450.347,338.369,517.179,380.138,553.919z"/>
		<path fill="#FFFFFF" d="M590.42,205.73c-4.28,0.016-8.441,0.062-12.415,0.131c-16.264,15.496-43.115,38.789-51.911,38.789
			c-0.285,0-0.553-0.02-0.806-0.059c-7.277-1.096-47.879-14.984-50.5-29.168c-0.392-2.119-0.088-4.957,2.688-7.783
			c-15.188,0.928-31.991,2.605-49.158,5.492c-1.336,0.225-2.649,0.465-3.97,0.7c-23.047,33.484-32.112,59.458-35.575,76.057
			c-3.536,16.945-2.036,27.385-1.429,30.428c6.384,7.343,16.421,15.938,26.513,23.845c8.576,6.574,18.98,14.166,30.847,22.388
			c10.368-10.649,21.442-20.045,32.518-28.264v-51.102l87.399-12.045c5.768-26.458,17.354-50.896,28.043-69.41
			C591.919,205.729,591.188,205.729,590.42,205.73z"/>
		<path fill="#FFFFFF" d="M964.658,214.105l-0.464-0.464l-0.329-0.567c-5.673-9.807-19.056-22.852-35.495-35.197
			c-0.101,0.244-0.187,0.5-0.303,0.73c1.104,1.355,2.267,3.145,3.134,5.404c1.608,4.186,1.771,8.783,0.482,13.664
			c-0.479,1.816-1.168,3.689-2.047,5.562l-0.17,0.363l-0.239,0.32c-0.15,0.203-3.758,5.02-9.032,8.133
			c-1.356,0.799-2.729,1.432-4.081,1.881c-1.723,0.574-6.837,1.822-13.026,3.18c-16.116,3.535-69.934,14.525-89.669,8.498
			c-3.997-0.443-8.698-0.953-13.756-1.487c1.991,5.589,3.923,11.521,5.79,17.822l-10.026,1.382
			c-2.028-6.722-4.319-13.613-6.861-20.355c-20.448-2.08-42.682-4.109-48.391-3.865c-6.819,0.305-88.77-1.826-100.735-9.895
			c-0.484-0.328-5.212-2.859-35.091-3.39c-10.551,17.558-22.767,41.736-29.104,67.851l368.158-50.739v138.756
			c8.869-4.8,17.634-9.622,25.606-14.099c14.872-8.585,29.059-17.193,33.195-20.103
			C1017.452,267.777,965.191,214.64,964.658,214.105z"/>
	</g>
	<g id="minicup_x5F_text">
		<polygon fill="#FFFFFF" points="742.174,687.917 730.484,700.994 707.099,704.218 695.406,694.362 695.406,534.646 
			654.622,540.267 654.622,718.381 688.338,746.798 749.244,738.404 782.961,700.695 782.961,522.58 742.174,528.201 		"/>
		<polygon fill="#FFFFFF" points="764.693,379.247 811.461,476.525 851.432,471.016 851.432,259.838 810.645,265.459 
			810.645,368.915 764.148,271.866 723.906,277.413 723.906,488.591 764.693,482.97 		"/>
		<polygon fill="#FFFFFF" points="696.717,281.16 655.931,286.781 655.931,497.959 696.717,492.338 		"/>
		<polygon fill="#FFFFFF" points="532.536,557.092 498.82,594.802 498.82,739.854 524.405,761.419 534.691,767.975 593.443,759.877 
			627.432,722.129 627.432,688.532 586.646,694.153 586.646,709.353 574.682,722.467 551.298,725.69 539.606,715.836 
			539.606,607.579 551.298,594.502 574.682,591.279 586.646,601.098 586.646,616.295 627.432,610.674 627.432,577.077 
			593.443,548.698 		"/>
		<polygon fill="#FFFFFF" points="564.847,365.727 542.007,302.482 501.222,308.104 501.222,519.282 542.007,513.661 
			542.007,427.269 564.847,490.515 587.959,420.936 587.959,507.328 628.744,501.707 628.744,290.528 587.959,296.148 		"/>
		<polygon fill="#FFFFFF" points="919.402,250.471 878.617,256.091 878.617,467.271 919.402,461.648 		"/>
		<path fill="#FFFFFF" d="M904.774,505.793l-94.626,13.038v211.18l40.789-5.622v-78.925l53.837-7.42l33.715-37.977v-65.86
			L904.774,505.793z M897.977,587.521l-11.965,13.113l-35.074,4.833v-52.26l35.074-4.834l11.965,9.55V587.521z"/>
	</g>
	<g id="ryba">
		<path id="ploutev" fill="#FFFFFF" d="M559.138,217.656c4.604-3.992,9.035-7.998,12.979-11.672l8.524-8.162
			c3.68-3.641,6.162-6.299,6.801-7.273c0.267-0.408,0.207-0.559,0.172-0.648c-0.592-1.51-4.551-3.184-11.765-4.975
			c-0.659-0.164-1.2-0.301-1.573-0.406c-0.327-0.025-1.076-0.072-2.029-0.072c-3.397,0-7.447,0.676-7.682,2.586
			c-0.443,3.592-13.631,5.949-32.239,8.166c-25.166,3-48.808,12.887-48.808,12.887c-7.525,3.781-4.959,5.738-4.798,6.611
			c0.571,3.091,4.322,6.869,10.616,10.849l18.49,8.986l18.057,6.104l2.301-0.481C531.785,238.821,540.238,234.048,559.138,217.656z"
			/>
		<path fill="#FFFFFF" d="M923.732,186.879c-0.615-1.604-1.492-2.812-2.216-3.625c-6.321,1.688-18.642,2.902-34.75,4.359
			c-9.129,0.826-17.752,1.605-20.887,2.32c-0.037,0.008-0.075,0.016-0.113,0.023c-1.539,0.303-19.857,3.818-41.904,3.818
			c-23.653,0-51.598-4.045-67.722-20.438c-1.549-1.574-1.528-4.107,0.047-5.656c1.573-1.549,4.106-1.529,5.656,0.047
			c27.86,28.324,100.062,14.824,102.325,14.389c3.691-0.826,12.123-1.59,21.877-2.473c12.905-1.166,30.579-2.766,34.892-4.588
			c0.521-0.654,0.692-4.75-2.458-12.43c-2.704-6.594-6.422-12.439-8.454-14.283c-3.841-3.482-18.563-10.125-26.997-13.518
			c-3.347-1.198-21.851-7.923-37.161-15.461c7.543,5.141,20.658,12.077,43.225,19.781c0.784,0.268,1.203,1.121,0.936,1.904
			c-0.213,0.625-0.796,1.016-1.42,1.016c-0.16,0-0.324-0.025-0.484-0.08c-39.891-13.619-51.067-25.016-53.943-29.032
			c-3.729-2.352-6.676-4.656-8.28-6.774c-1.938-2.561-3.607-5.714-5.374-9.054c-5.785-10.938-11.763-22.253-28.777-18.55
			c-0.063,0.014-0.127,0.026-0.191,0.037c-0.516,0.087-12.728,1.971-23.578-9.277c-30.289-31.413-50.23-29.99-50.412-29.966
			c-0.136,0.017-0.271,0.026-0.407,0.028c-73.373,1.31-178.794,11.327-264.345,51.609c-40.865,19.242-68.804,41.066-75.572,49.277
			l-1,1c0.088-0.108,0.494-0.602,1.169-1.389c-43.192,44.05-68.513,88.949-89.396,149.266c0.279-0.616,0.562-1.23,0.85-1.842
			c0.055-0.118,0.109-0.235,0.165-0.353c0.272-0.577,0.549-1.151,0.829-1.724c0.07-0.143,0.14-0.286,0.211-0.429
			c0.281-0.569,0.565-1.138,0.854-1.703c0.057-0.112,0.116-0.224,0.174-0.336c1.285-2.496,2.648-4.948,4.098-7.354
			c0.089-0.148,0.177-0.297,0.267-0.445c0.298-0.489,0.601-0.977,0.906-1.463c0.13-0.207,0.261-0.415,0.392-0.622
			c0.295-0.463,0.593-0.925,0.896-1.385c0.144-0.219,0.289-0.437,0.434-0.655c0.304-0.456,0.609-0.912,0.92-1.365
			c0.138-0.201,0.28-0.401,0.42-0.603c0.327-0.47,0.653-0.939,0.988-1.405c0.011-0.015,0.022-0.029,0.033-0.044
			c0.75-1.044,1.523-2.075,2.313-3.098c0.156-0.202,0.31-0.406,0.468-0.608c0.305-0.39,0.617-0.775,0.928-1.162
			c0.216-0.269,0.431-0.537,0.65-0.804c0.3-0.366,0.605-0.73,0.911-1.094c0.239-0.283,0.479-0.566,0.721-0.848
			c0.301-0.351,0.604-0.7,0.911-1.048c0.26-0.295,0.523-0.588,0.787-0.881c0.3-0.333,0.6-0.666,0.905-0.997
			c0.292-0.316,0.59-0.63,0.887-0.943c0.287-0.305,0.572-0.61,0.864-0.913c0.562-0.581,1.131-1.157,1.709-1.729
			c0.263-0.261,0.533-0.517,0.799-0.775c0.359-0.349,0.718-0.697,1.083-1.043c0.29-0.273,0.585-0.544,0.879-0.815
			c0.354-0.328,0.71-0.655,1.07-0.979c0.299-0.269,0.601-0.536,0.903-0.804c0.372-0.327,0.746-0.652,1.124-0.977
			c0.299-0.256,0.598-0.513,0.901-0.767c0.408-0.343,0.821-0.683,1.236-1.021c0.28-0.229,0.558-0.459,0.841-0.686
			c0.526-0.422,1.061-0.839,1.599-1.254c0.182-0.141,0.359-0.283,0.542-0.423c0.715-0.546,1.442-1.086,2.178-1.621
			c0.242-0.176,0.489-0.349,0.733-0.523c0.514-0.368,1.03-0.735,1.554-1.098c0.295-0.205,0.595-0.407,0.894-0.61
			c0.487-0.331,0.977-0.66,1.473-0.987c0.313-0.206,0.628-0.411,0.945-0.616c0.502-0.324,1.009-0.646,1.521-0.966
			c0.311-0.194,0.621-0.39,0.935-0.583c0.56-0.344,1.127-0.684,1.697-1.021c0.271-0.161,0.539-0.324,0.812-0.483
			c0.847-0.495,1.703-0.985,2.574-1.468c23.571-13.078,53.293-22.689,88.343-28.568c24.752-4.152,48.756-5.836,68.378-6.383
			c13.681-4.258,30.401-6.641,43.597-8.521c9.203-1.311,19.599-2.791,21.545-4.176c0.455-2.297,2.644-5.691,11.587-5.691
			c1.494,0,2.553,0.102,2.597,0.105l0.406,0.084c0.314,0.098,0.862,0.232,1.564,0.406c6.229,1.547,13.003,3.523,14.523,7.396
			c0.388,0.986,0.606,2.533-0.549,4.299c-0.488,0.746-2.105,2.535-4.533,5.018c1.114-0.01,2.224-0.018,3.322-0.021
			c13.524-0.059,23.609,0.219,31.165,0.67c-1.119-0.504-2.274-1.043-3.495-1.66c-3.241-1.629-6.796-3.701-10.517-6.275
			c-3.698-2.6-7.561-5.711-11.291-9.48c-3.72-3.766-7.352-8.168-10.432-13.271c-1.567-2.535-2.984-5.246-4.196-8.111
			c-0.645-1.414-1.171-2.896-1.728-4.375c-0.499-1.502-0.977-3.02-1.364-4.576c-0.805-3.096-1.447-6.285-1.739-9.521
			c-0.364-3.232-0.392-6.5-0.252-9.74c0.355-6.477,1.597-12.84,3.604-18.717c0.971-2.949,2.09-5.805,3.38-8.512
			c0.636-1.357,1.257-2.71,1.958-3.999c0.673-1.304,1.367-2.587,2.119-3.809c2.895-4.966,6.097-9.439,9.376-13.412
			c0.806-1.008,1.636-1.966,2.466-2.897c0.83-0.93,1.613-1.872,2.449-2.74c1.695-1.711,3.244-3.432,4.885-4.931
			c3.207-3.068,6.28-5.706,9.093-7.922c2.796-2.234,5.339-4.039,7.455-5.485c1.045-0.737,2.018-1.349,2.865-1.877
			c0.841-0.535,1.566-0.976,2.156-1.331c1.187-0.699,1.819-1.071,1.819-1.071s-0.396,0.621-1.137,1.785
			c-0.738,1.162-1.884,2.799-3.286,4.909c-1.399,2.087-3.099,4.622-5.048,7.529c-0.975,1.438-1.986,2.976-3.031,4.607
			c-1.071,1.609-2.156,3.317-3.268,5.104c-2.25,3.551-4.577,7.424-6.856,11.55c-2.32,4.103-4.52,8.504-6.528,13.073
			c-0.533,1.133-0.947,2.314-1.443,3.471c-0.506,1.152-0.92,2.34-1.354,3.525c-0.461,1.18-0.812,2.389-1.197,3.594
			c-0.435,1.193-0.727,2.416-1.092,3.627c-1.334,4.875-2.135,9.852-2.41,14.793c-0.124,2.469-0.125,4.936,0.072,7.373
			c0.062,1.225,0.241,2.43,0.354,3.645c0.199,1.201,0.338,2.414,0.615,3.596c0.963,4.76,2.512,9.367,4.499,13.721
			c1.986,4.35,4.384,8.449,6.97,12.213c2.572,3.775,5.331,7.221,8.028,10.332c5.421,6.213,10.6,11.076,14.319,14.439
			c0.61,0.547,1.167,1.039,1.696,1.506c11.181,1.164,13.569,2.768,14.654,3.5c5.313,3.584,37.254,6.281,63.215,7.631
			c-0.87-0.219-1.744-0.449-2.637-0.674c-2.505-0.615-5.055-1.414-7.683-2.215c-5.227-1.703-10.674-3.771-16.077-6.467
			c-5.415-2.66-10.848-5.785-16.088-9.396c-5.242-3.607-10.105-7.979-14.36-12.834c-4.253-4.859-8.064-10.01-11.326-15.375
			c-1.639-2.678-3.142-5.41-4.515-8.182c-0.725-1.369-1.324-2.787-1.998-4.172c-0.608-1.41-1.202-2.822-1.738-4.25
			c-2.198-5.684-3.562-11.582-3.823-17.229c-0.282-5.65,0.424-10.973,1.41-15.75c1.029-4.777,2.429-9.023,3.926-12.659
			c1.497-3.639,3.072-6.679,4.523-9.087c1.422-2.423,2.71-4.22,3.615-5.419c0.916-1.191,1.469-1.791,1.469-1.791l0.684,0.414
			c0,0-0.256,0.743-0.736,2.135c-0.478,1.39-1.142,3.436-1.931,6.03c-1.518,5.205-3.599,12.614-4.853,21.567
			c-0.322,2.236-0.558,4.57-0.75,6.98c-0.168,2.414-0.267,4.902-0.331,7.465c-0.064,2.564-0.035,5.197,0.068,7.908
			c0.086,2.715,0.365,5.49,0.832,8.305c0.924,5.623,2.929,11.363,6.206,16.463c3.176,5.166,7.499,9.678,12.29,13.477
			c1.18,0.971,2.444,1.848,3.651,2.77c1.273,0.85,2.507,1.732,3.792,2.541c2.538,1.662,5.121,3.215,7.707,4.715
			c5.163,3.016,10.494,5.559,15.742,7.818c5.266,2.229,10.446,4.193,15.367,6.082c2.477,0.91,4.876,1.826,7.234,2.631
			c2.342,0.85,4.625,1.627,6.827,2.357c2.186,0.783,4.309,1.457,6.328,2.109c2.018,0.654,3.935,1.295,5.748,1.854
			c1.813,0.578,3.51,1.119,5.079,1.619c1.389,0.43,2.661,0.828,3.842,1.219c2.212,0.016,3.982-0.002,5.203-0.055
			c11.046-0.484,72.262,6.299,74.862,6.588l0.407,0.045l0.39,0.127c0.404,0.132,0.837,0.252,1.287,0.366
			c0.447,0.111,0.916,0.214,1.404,0.31l9.647,0.647l23.323-1.268c0.006-0.001,0.011-0.001,0.017-0.002
			c10.016-1.147,20.92-2.873,31.527-4.846c0.041-0.008,0.082-0.016,0.123-0.022c0.955-0.179,1.906-0.358,2.855-0.54
			c0.117-0.022,0.235-0.045,0.353-0.067c0.879-0.168,1.754-0.34,2.627-0.511c0.18-0.035,0.361-0.07,0.541-0.105
			c0.789-0.156,1.572-0.313,2.354-0.472c0.259-0.052,0.521-0.104,0.778-0.156c0.728-0.147,1.448-0.297,2.169-0.446
			c0.301-0.062,0.604-0.123,0.904-0.186c0.618-0.129,1.229-0.26,1.842-0.39c0.396-0.084,0.798-0.167,1.191-0.251
			c0.99-0.212,1.972-0.425,2.942-0.638c7.174-1.572,11.235-2.629,12.215-2.955c0.819-0.273,1.675-0.672,2.543-1.184
			c3.212-1.895,5.707-4.807,6.447-5.721c0.586-1.301,1.047-2.578,1.37-3.807C924.8,192.412,924.727,189.467,923.732,186.879z
			 M354.491,214.197c-6.075,0-11-4.926-11-11c0-6.076,4.925-11,11-11s11,4.924,11,11
			C365.492,209.271,360.566,214.197,354.491,214.197z M389.657,147.699c6.075,0,11,4.924,11,11c0,6.074-4.925,11-11,11
			s-11-4.926-11-11C378.657,152.623,383.582,147.699,389.657,147.699z M391.992,201.033c-6.075,0-11-4.926-11-11
			c0-6.076,4.925-11,11-11s11,4.924,11,11C402.992,196.107,398.067,201.033,391.992,201.033z M426.491,142.865
			c6.075,0,11,4.924,11,11c0,6.074-4.925,11-11,11s-11-4.926-11-11C415.491,147.789,420.416,142.865,426.491,142.865z
			 M428.158,194.365c-6.075,0-11-4.926-11-11c0-6.076,4.925-11,11-11s11,4.924,11,11
			C439.158,189.439,434.233,194.365,428.158,194.365z M434.657,133.199c-6.075,0-11-4.926-11-11c0-6.076,4.925-11,11-11
			s11,4.924,11,11C445.657,128.273,440.732,133.199,434.657,133.199z M466.158,187.033c-6.075,0-11-4.926-11-11
			c0-6.076,4.925-11,11-11s11,4.924,11,11C477.158,182.107,472.233,187.033,466.158,187.033z M466.158,153.365
			c-6.075,0-11-4.926-11-11c0-6.076,4.925-11,11-11s11,4.924,11,11C477.158,148.439,472.233,153.365,466.158,153.365z
			 M473.492,117.701c-6.075,0-11-4.926-11-11c0-6.077,4.925-11,11-11s11,4.924,11,11
			C484.492,112.775,479.567,117.701,473.492,117.701z M503.158,123.865c6.075,0,11,4.924,11,11c0,6.074-4.925,11-11,11
			s-11-4.926-11-11C492.158,128.789,497.083,123.865,503.158,123.865z M505.992,182.867c-6.075,0-11-4.926-11-11
			c0-6.076,4.925-11,11-11s11,4.924,11,11C516.992,177.941,512.067,182.867,505.992,182.867z M514.992,103.033
			c-6.075,0-11-4.925-11-11c0-6.076,4.925-11,11-11s11,4.924,11,11C525.992,98.107,521.067,103.033,514.992,103.033z
			 M545.159,115.033c6.075,0,11,4.924,11,11c0,6.074-4.925,11-11,11s-11-4.926-11-11
			C534.159,119.957,539.084,115.033,545.159,115.033z M545.992,177.865c-6.075,0-11-4.926-11-11c0-6.076,4.925-11,11-11
			s11,4.924,11,11C556.992,172.939,552.067,177.865,545.992,177.865z M557.992,95.033c-6.075,0-11-4.925-11-11s4.925-11,11-11
			s11,4.925,11,11S564.067,95.033,557.992,95.033z M742.065,134.238c-1.855,0.539-3.777,0.812-5.71,0.812
			c-10.548,0-20.228-7.971-23.539-19.381c-1.916-6.588-1.482-13.454,1.219-19.329c2.77-6.022,7.574-10.291,13.529-12.02
			c1.854-0.54,3.776-0.813,5.71-0.813c10.545,0,20.224,7.97,23.538,19.38c0.267,0.919,0.482,1.839,0.656,2.758
			c3.205,3.156,10.449,8.545,25.269,12.777c4.002,1.145,9.003,2.523,14.795,4.119c28,7.721,70.312,19.389,79.384,26.475
			c0.652,0.51,0.769,1.453,0.258,2.105c-0.295,0.379-0.736,0.576-1.183,0.576c-0.323,0-0.648-0.104-0.923-0.318
			c-8.599-6.717-52.252-18.754-78.334-25.945c-5.799-1.6-10.807-2.98-14.821-4.127c-12.319-3.519-19.687-7.833-23.957-11.221
			C758.315,121.254,752.069,131.332,742.065,134.238z"/>
		<path fill="#FFFFFF" d="M751.051,104.562c-2.574-8.864-9.885-15.054-17.776-15.054c-1.366,0-2.725,0.193-4.037,0.575
			c-4.258,1.236-7.721,4.349-9.751,8.764c-2.099,4.565-2.421,9.944-0.908,15.149c2.572,8.865,9.883,15.055,17.777,15.055
			c1.366,0,2.725-0.193,4.036-0.574C749.343,125.875,754.124,115.148,751.051,104.562z M737.694,116.789
			c-3.277,0.941-6.693-0.951-7.633-4.225c-0.941-3.275,0.951-6.693,4.227-7.635c3.275-0.939,6.693,0.953,7.633,4.227
			C742.862,112.432,740.968,115.85,737.694,116.789z"/>
	</g>
</g>
</svg>
