<?xml version="1.0" encoding="UTF-8" standalone="no"?>
<!-- Created with Inkscape (http://www.inkscape.org/) -->

<svg
   xmlns:dc="http://purl.org/dc/elements/1.1/"
   xmlns:cc="http://creativecommons.org/ns#"
   xmlns:rdf="http://www.w3.org/1999/02/22-rdf-syntax-ns#"
   xmlns:svg="http://www.w3.org/2000/svg"
   xmlns="http://www.w3.org/2000/svg"
   xmlns:sodipodi="http://sodipodi.sourceforge.net/DTD/sodipodi-0.dtd"
   xmlns:inkscape="http://www.inkscape.org/namespaces/inkscape"
   width="54.355961mm"
   height="53.389908mm"
   viewBox="0 0 54.355961 53.389908"
   version="1.1"
   id="svg1051"
   inkscape:version="0.92.4 (33fec40, 2019-01-16)"
   sodipodi:docname="logo-mini.svg">
  <defs
     id="defs1045" />
  <sodipodi:namedview
     id="base"
     pagecolor="#ffffff"
     bordercolor="#666666"
     borderopacity="1.0"
     inkscape:pageopacity="0.0"
     inkscape:pageshadow="2"
     inkscape:zoom="0.98994949"
     inkscape:cx="66.152558"
     inkscape:cy="37.722446"
     inkscape:document-units="mm"
     inkscape:current-layer="layer1"
     showgrid="false"
     fit-margin-top="0"
     fit-margin-left="0"
     fit-margin-right="0"
     fit-margin-bottom="0"
     inkscape:window-width="1920"
     inkscape:window-height="1136"
     inkscape:window-x="0"
     inkscape:window-y="27"
     inkscape:window-maximized="1" />
  <metadata
     id="metadata1048">
    <rdf:RDF>
      <cc:Work
         rdf:about="">
        <dc:format>image/svg+xml</dc:format>
        <dc:type
           rdf:resource="http://purl.org/dc/dcmitype/StillImage" />
        <dc:title></dc:title>
      </cc:Work>
    </rdf:RDF>
  </metadata>
  <g
     inkscape:label="Vrstva 1"
     inkscape:groupmode="layer"
     id="layer1"
     transform="translate(-72.607731,-89.229365)">
    <g
       transform="matrix(0.84894814,0,0,0.84894814,11.863993,11.392526)"
       id="layer1-7"
       inkscape:label="Vrstva 1"
       style="opacity:1;fill:white;fill-opacity:1">
      <g
         id="g2269"
         transform="translate(-7.5087324,-16.630938)"
         style="fill:white;fill-opacity:1">
        <g
           style="fill:white;fill-opacity:1"
           id="g984"
           transform="matrix(0.18005668,0,0,-0.18005668,131.09256,149.49801)">
          <path
             d="m 0,0 v 17.174 l -6.941,5.541 -20.35,-2.806 v -30.32 l 20.35,2.804 z m 3.943,-29.312 -31.234,-4.305 v -45.792 l -23.668,-3.262 V 39.855 L 3.943,47.42 23.506,30.935 V -7.277 Z m -70.675,-36.351 -19.563,-21.878 -35.338,-4.869 -19.562,16.486 V 27.42 l 23.664,3.26 v -92.668 l 6.785,-5.717 13.568,1.87 6.782,7.587 v 92.666 l 23.664,3.262 z m -90.239,-12.436 -19.719,-21.901 -35.337,-4.871 -19.565,16.49 v 84.157 l 19.565,21.879 35.337,4.87 19.719,-16.465 v -19.492 l -23.662,-3.26 v 8.817 l -6.942,5.696 -13.57,-1.87 -6.781,-7.588 v -62.81 l 6.781,-5.717 13.57,1.871 6.942,7.607 v 8.817 l 23.662,3.265 z m 145.74,270.397 23.663,3.261 V 73.031 L -11.231,69.77 Z M -27.008,67.599 -50.197,64.4 -77.33,120.843 V 60.662 l -23.665,-3.26 v 122.524 l 23.349,3.219 26.976,-56.308 v 60.024 l 23.662,3.262 z m -113.428,106.892 23.665,3.261 V 55.228 l -23.665,-3.262 z M -156.209,49.79 -179.873,46.531 v 50.123 l -13.41,-40.371 -13.252,36.697 V 42.854 l -23.662,-3.262 v 122.527 l 23.662,3.262 13.252,-36.694 13.41,40.37 23.664,3.259 z"
             style="fill:white;fill-opacity:1;fill-rule:nonzero;stroke:none"
             id="path986"
             inkscape:connector-curvature="0" />
        </g>
        <path
           inkscape:connector-curvature="0"
           id="path998"
           style="fill:white;fill-opacity:1;fill-rule:nonzero;stroke:none;stroke-width:0.18005668"
           d="M 86.100525,158.10157 C 75.82163,143.58568 77.574857,133.23783 86.351344,121.07849 v 21.2908 3.77759 l 2.624867,-0.36191 -2.037702,2.27898 -0.837984,0.93719 v 1.25734 z m 56.897195,-20.73531 c -0.47139,-6.25697 -2.7754,-12.00186 -6.37437,-16.70242 v 15.68438 2.86974 l -1.52832,0.21067 2.35154,1.9817 1.17109,0.98653 v 1.5312 6.88033 1.25049 l -0.83024,0.93558 -3.52209,3.96755 -0.80774,0.90928 -1.20512,0.16638 -2.78151,0.38298 v 5.37559 1.86899 c 8.22499,-5.67161 13.61696,-15.15699 13.61696,-25.90314 0,-0.50145 -0.013,-0.99985 -0.0362,-1.49555 z m -38.42806,29.18159 -2.77647,3.08329 c 3.09859,1.02146 6.40929,1.57549 9.85018,1.57549 5.76649,0 11.16945,-1.55371 15.81581,-4.2632 l -19.26894,2.65566 M 90.02378,116.93125 c 5.635414,-5.33832 13.24443,-8.6141 21.61959,-8.6141 5.2897,0 10.27349,1.30812 14.64815,3.61572 l -0.51136,0.0704 -4.26087,0.58734 -2.47649,0.34121 v -1.8e-4 l -2.38071,0.32824 -3.30224,0.45518 v -1.8e-4 l -3.74212,0.51587 -4.26104,0.58716 -2.84292,0.39198 v 0 l -4.257798,0.58663 -2.029599,0.27963 -0.06572,0.19734 -0.06446,-0.17898 -2.641071,0.36372 z"
           sodipodi:nodetypes="ccccccccccccccccccccccccccsccccscccscccccccccccccccccc" />
      </g>
    </g>
  </g>
</svg>
